# xmcd CD database file
#
# Track frame offsets:
#	150
#	16307
#	37884
#	51902
#	73592
#	87607
#	109671
#	124177
#	146118
#	167778
#	189562
#	206470
#	225247
#
# Disc length: 3284 seconds
#
# Revision: 0
# Processed by: cddbd v1.5PL3 Copyright (c) Steve Scherf et al.
# Submitted via: CDex 1.50
#
DISCID=b10cd20d
DTITLE=Jazzica - Jazzica
DYEAR=1900
DGENRE=Jazz
TTITLE0=Mustang Sally
TTITLE1=Englishman In New York
TTITLE2=Mountain Samba
TTITLE3=The Lady Is A Tramp
TTITLE4=More And More
TTITLE5=Blues For Connemara 1 And 2
TTITLE6=O.K.
TTITLE7=Lover Man
TTITLE8=Leben
TTITLE9=Tequila
TTITLE10=Knock On Wood
TTITLE11=Sweet Georgia And Sweet Georgia Brown
TTITLE12=White Room
EXTD=
EXTT0=
EXTT1=
EXTT2=
EXTT3=
EXTT4=
EXTT5=
EXTT6=
EXTT7=
EXTT8=
EXTT9=
EXTT10=
EXTT11=
EXTT12=
PLAYORDER=
